:SAMPLES-PER-SECOND 30
:FULLY-SPECIFIED
:DEGREES
373
root  2.10939 39.8592 0.162003 -2.0628 -12.2249 1.65459
RightUpLeg  -5.94291 -10.1624 -13.1791
RightLeg  7.77864 2.46378 -2.11995
RightFoot  -3.68828 -0.344807 4.19041
RightToes  1.74624e-010 -3.18055e-015 -2.98177e-016
Spine  3.20471 1.55397 -2.18083
Spine1  -1.75756 1.77644 -2.41691
HEad  -8.50966 7.22649 7.0328
LeftShoulder1  -3.88251e-019 9.70628e-020 -3.87848e-018
LeftArm  -18.848 33.6833 11.8541
LeftForeArm  -41.5931 -56.7421 15.0306
LeftHand  -1.42422 -7.45 13.5047
RightShoulder  2.36996 5.61683 13.8244
RightArm  -23.5742 -30.9329 -10.4572
RightForeArm  -58.4332 59.5175 -43.0484
RightHand  -2.3874 3.58931 -29.9437
LeftUpLeg  -1.81268 -3.22917 -7.93638
LeftLeg  9.0988 21.1546 4.91103
LeftFoot  -5.6563 -0.215597 3.0821
LeftToes  7.37594e-011 2.64622e-011 -6.25182e-011
374
root  1.85204 39.8399 0.157351 -1.59239 -12.9726 1.95453
RightUpLeg  -6.21492 -9.22958 -13.1872
RightLeg  6.85858 3.1365 -2.11404
RightFoot  -3.5126 -0.344608 4.10649
RightToes  1.74624e-010 -3.18055e-015 -2.98177e-016
Spine  2.79498 1.38871 -2.72689
Spine1  -1.76019 1.5913 -2.35899
HEad  -8.6406 7.32828 7.26787
LeftShoulder1  -3.88251e-019 9.70628e-020 -3.87848e-018
LeftArm  -17.8152 36.2807 12.6824
LeftForeArm  -42.6229 -46.6652 9.78324
LeftHand  -0.9659 -4.16659 12.5073
RightShoulder  2.4292 5.65454 14.2104
RightArm  -22.3865 -33.1722 -11.8814
RightForeArm  -50.6542 53.0034 -32.6273
RightHand  -1.70162 1.54729 -27.6782
LeftUpLeg  -2.14731 -3.14911 -7.82263
LeftLeg  8.86259 21.7035 4.8718
LeftFoot  -5.46235 -0.18914 2.6145
LeftToes  7.37594e-011 2.64622e-011 -6.25182e-011
375
root  1.5388 39.802 0.116362 -1.1395 -13.4658 2.36862
RightUpLeg  -6.66924 -9.28947 -12.9959
RightLeg  6.76721 3.1369 -2.03443
RightFoot  -2.86993 -0.491626 5.41651
RightToes  1.74624e-010 -3.18055e-015 -2.98177e-016
Spine  2.54583 1.1047 -3.68365
Spine1  -1.806 1.24211 -1.93885
HEad  -8.916 7.37377 7.52168
LeftShoulder1  -3.88251e-019 9.70628e-020 -3.87848e-018
LeftArm  -16.9754 39.0776 12.4301
LeftForeArm  -42.852 -35.7326 6.26339
LeftHand  -0.744231 -1.30436 13.8981
RightShoulder  2.52247 5.71822 14.8053
RightArm  -20.0026 -35.1439 -12.7508
RightForeArm  -46.2226 44.8003 -24.0777
RightHand  -1.29173 0.052855 -26.6572
LeftUpLeg  -2.78193 -3.0977 -7.71624
LeftLeg  9.12004 21.9833 5.06548
LeftFoot  -5.34755 -0.154678 2.07146
LeftToes  7.37594e-011 2.64622e-011 -6.25182e-011
376
root  1.17711 39.7599 0.0347606 -0.81646 -13.8591 2.89338
RightUpLeg  -7.04969 -10.1867 -12.5532
RightLeg  7.08371 3.12798 -1.62584
RightFoot  -1.51868 -0.791859 7.67122
RightToes  1.74624e-010 -3.18055e-015 -2.98177e-016
Spine  2.48424 0.860438 -4.88935
Spine1  -1.75997 0.906639 -1.27625
HEad  -9.56911 7.42584 7.85243
LeftShoulder1  -3.88251e-019 9.70628e-020 -3.87848e-018
LeftArm  -10.9664 41.8602 10.4492
LeftForeArm  -43.8988 -23.8736 5.48372
LeftHand  -0.498672 1.19369 15.1597
RightShoulder  2.62318 5.80451 15.408
RightArm  -16.1596 -36.6625 -13.1976
RightForeArm  -44.5948 34.651 -16.6578
RightHand  -0.564887 -2.96016 -25.2811
LeftUpLeg  -3.40708 -3.04038 -7.61323
LeftLeg  9.49053 22.1488 5.27007
LeftFoot  -5.15551 -0.113159 1.43213
LeftToes  7.37594e-011 2.64622e-011 -6.25182e-011
377
root  0.786503 39.7496 -0.0585051 -0.677384 -14.4259 3.39938
RightUpLeg  -7.0867 -10.2514 -11.776
RightLeg  6.88579 2.62709 -1.19199
RightFoot  0.0524953 -1.00698 8.57721
RightToes  1.74624e-010 -3.18055e-015 -2.98177e-016
Spine  2.42399 0.773829 -5.52863
Spine1  -1.40993 0.822886 -1.09719
HEad  -10.3651 7.4985 8.12262
LeftShoulder1  -3.88251e-019 9.70628e-020 -3.87848e-018
LeftArm  3.56401 44.9022 6.13664
LeftForeArm  -49.8685 -12.5532 6.82461
LeftHand  -0.24948 2.92269 13.8057
RightShoulder  2.73571 5.93334 16.0106
RightArm  -9.69953 -38.691 -12.6138
RightForeArm  -45.1938 23.4091 -11.3393
RightHand  0.281392 -6.79805 -23.9534
LeftUpLeg  -3.51914 -2.97081 -7.44174
LeftLeg  9.20629 22.5486 5.1101
LeftFoot  -4.65746 -0.0790594 0.901877
LeftToes  7.37594e-011 2.64622e-011 -6.25182e-011
378
root  0.38188 39.8001 -0.133775 -0.736739 -15.1497 3.70129
RightUpLeg  -6.7059 -8.30374 -10.7796
RightLeg  5.81222 1.1977 -1.19616
RightFoot  1.35242 -0.967462 7.44952
RightToes  1.74624e-010 -3.18055e-015 -2.98177e-016
Spine  2.28367 0.732317 -4.8281
Spine1  -0.65581 0.989098 -2.05705
HEad  -11.2429 7.46307 8.00074
LeftShoulder1  -3.88251e-019 9.70628e-020 -3.87848e-018
LeftArm  3.21951 48.9691 0.869074
LeftForeArm  -43.9431 -6.74857 4.40119
LeftHand  -0.221737 2.8499 11.9249
RightShoulder  3.00111 6.24717 17.3585
RightArm  0.846366 -42.5794 -10.3888
RightForeArm  -56.132 14.3821 -10.2667
RightHand  1.03 -9.72164 -27.0732
LeftUpLeg  -2.86812 -2.92805 -7.10085
LeftLeg  7.91989 23.2034 4.47709
LeftFoot  -3.76743 -0.0659296 0.682003
LeftToes  7.37594e-011 2.64622e-011 -6.25182e-011
379
root  -0.0438742 39.8753 -0.194666 -0.915498 -15.7113 3.713
RightUpLeg  -6.29247 -6.18063 -9.69927
RightLeg  4.85944 0.0357915 -1.72077
RightFoot  2.11768 -0.857186 6.22729
RightToes  1.74624e-010 -3.18055e-015 -2.98177e-016
Spine  2.19847 0.553209 -3.15334
Spine1  0.275886 1.14414 -3.71638
HEad  -12.576 7.39993 7.23519
LeftShoulder1  -3.88251e-019 9.70628e-020 -3.87848e-018
LeftArm  -0.333623 54.2411 -6.2249
LeftForeArm  -46.0445 -6.01023 4.44275
LeftHand  -0.330816 2.03142 12.8228
RightShoulder  3.57521 6.86939 20.1765
RightArm  2.60111 -48.0899 -7.23507
RightForeArm  -71.48 12.007 -10.5808
RightHand  1.91576 -11.4003 -36.2085
LeftUpLeg  -1.96065 -2.84745 -6.50351
LeftLeg  6.52959 23.6051 3.89376
LeftFoot  -2.79918 -0.0479024 0.45094
LeftToes  7.37594e-011 2.64622e-011 -6.25182e-011
380
root  -0.505488 39.9109 -0.265347 -1.0075 -15.8862 3.48009
RightUpLeg  -6.33035 -5.54963 -8.80175
RightLeg  5.28357 -0.245479 -2.01358
RightFoot  2.06253 -0.847398 6.18838
RightToes  1.74624e-010 -3.18055e-015 -2.98177e-016
Spine  2.08439 0.232367 -1.80986
Spine1  1.19968 1.02911 -4.67529
HEad  -14.4914 7.60444 5.79084
LeftShoulder1  -3.88251e-019 9.70628e-020 -3.87848e-018
LeftArm  -6.94178 59.4435 -15.6829
LeftForeArm  -51.321 -8.62667 5.39243
LeftHand  -0.486796 1.37619 15.6525
RightShoulder  4.396 7.68327 23.9539
RightArm  -4.22455 -52.9897 -3.67624
RightForeArm  -83.4756 14.0498 -12.1179
RightHand  2.05643 -10.3968 -44.8149
LeftUpLeg  -1.61959 -2.56308 -5.59373
LeftLeg  6.22333 23.3274 3.95865
LeftFoot  -2.17798 0.0190494 -0.26094
LeftToes  7.37594e-011 2.64622e-011 -6.25182e-011
381
root  -1.00969 39.8939 -0.359215 -0.917328 -15.7189 3.11712
RightUpLeg  -6.82609 -6.32189 -8.0027
RightLeg  6.91154 0.24433 -1.77101
RightFoot  1.19518 -0.81563 6.3318
RightToes  1.74624e-010 -3.18055e-015 -2.98177e-016
Spine  1.629 -0.111625 -1.72333
Spine1  2.35071 0.571604 -3.94103
HEad  -16.5436 8.15296 3.8314
LeftShoulder1  -3.88251e-019 9.70628e-020 -3.87848e-018
LeftArm  -14.6017 62.3257 -27.1543
LeftForeArm  -51.308 -10.597 5.50377
LeftHand  -0.630198 0.569237 16.644
RightShoulder  5.16379 8.39556 27.2129
RightArm  -9.5259 -55.3682 -0.0479082
RightForeArm  -86.3634 15.523 -12.3555
RightHand  1.8095 -9.62732 -46.6277
LeftUpLeg  -1.95064 -2.02896 -4.4157
LeftLeg  6.87662 22.4524 4.49613
LeftFoot  -1.91241 0.115589 -1.23424
LeftToes  7.37594e-011 2.64622e-011 -6.25182e-011
382
root  -1.55049 39.8661 -0.474411 -0.895735 -15.3318 2.71835
RightUpLeg  -7.22832 -7.34 -6.92188
RightLeg  8.54062 0.889447 -1.70985
RightFoot  0.0668469 -0.664004 5.61179
RightToes  1.74624e-010 -3.18055e-015 -2.98177e-016
Spine  1.02002 -0.508917 -2.66792
Spine1  3.80403 -0.210259 -1.88318
HEad  -18.1516 8.89082 1.90199
LeftShoulder1  -3.88251e-019 9.70628e-020 -3.87848e-018
LeftArm  -19.8151 61.7679 -37.1334
LeftForeArm  -45.6041 -10.1426 4.26667
LeftHand  -0.687938 -0.639051 14.3466
RightShoulder  5.61591 8.81639 28.9704
RightArm  -6.97412 -55.1545 3.85441
RightForeArm  -85.4679 14.0972 -11.9318
RightHand  2.07708 -10.4687 -44.8049
LeftUpLeg  -2.22364 -1.36422 -3.09676
LeftLeg  7.4257 21.2317 4.87869
LeftFoot  -1.63783 0.189787 -1.93571
LeftToes  7.37594e-011 2.64622e-011 -6.25182e-011
